<?xml version="1.0" standalone="no"?>
<!DOCTYPE svg PUBLIC "-//W3C//DTD SVG 20010904//EN"
 "http://www.w3.org/TR/2001/REC-SVG-20010904/DTD/svg10.dtd">
<svg version="1.0" xmlns="http://www.w3.org/2000/svg"
 width="1120.000000pt" height="1120.000000pt" viewBox="0 0 1120.000000 1120.000000"
 preserveAspectRatio="xMidYMid meet">
<metadata>
Created by potrace 1.11, written by Peter Selinger 2001-2013
</metadata>
<g transform="translate(0.000000,1120.000000) scale(0.100000,-0.100000)"
fill="#000000" stroke="none">
<path d="M1391 9207 l1394 -1391 0 -2216 0 -2215 -1394 -1392 -1394 -1393
3124 0 3123 0 251 254 c137 140 635 642 1105 1116 470 474 1001 1010 1180
1190 179 181 753 759 1275 1285 523 527 994 1001 1048 1056 l97 98 -242 245
c-134 135 -607 612 -1053 1061 -445 449 -979 987 -1185 1195 -206 208 -751
757 -1210 1220 -459 463 -932 940 -1050 1060 l-216 219 -3124 0 -3124 0 1395
-1392z m1399 248 c0 -217 -2 -395 -5 -395 -3 0 -184 178 -401 395 l-395 395
400 0 401 0 0 -395z m3835 -480 l876 -876 -940 -939 -941 -940 -980 980 -980
979 0 836 0 835 1045 0 1045 0 875 -875z m2435 -2435 l940 -940 -940 -940
-940 -940 -940 940 -940 939 938 940 c515 516 938 939 939 940 2 1 426 -422
943 -939z m-4725 -275 l665 -665 -670 -670 -670 -670 0 1335 c0 734 2 1335 5
1335 3 0 304 -299 670 -665z m2225 -2225 l940 -940 -813 -813 -812 -812 -1108
-3 -1107 -3 0 775 0 775 978 980 c537 538 978 980 979 980 2 1 426 -422 943
-939z m-3778 -1942 c2 -18 2 -167 0 -330 l-3 -298 -329 0 c-182 0 -330 2 -330
5 0 7 644 653 652 654 4 1 8 -14 10 -31z"/>
</g>
</svg>
